<mxfile host="65bd71144e">
    <diagram id="aPLf3pl5vbSTdOxEfKkZ" name="Page-1">
        <mxGraphModel dx="4971" dy="3106" grid="1" gridSize="10" guides="1" tooltips="1" connect="1" arrows="1" fold="1" page="1" pageScale="1" pageWidth="827" pageHeight="1169" math="0" shadow="0">
            <root>
                <mxCell id="0"/>
                <mxCell id="1" parent="0"/>
                <mxCell id="2" value="" style="ellipse;whiteSpace=wrap;html=1;aspect=fixed;fontFamily=Times New Roman;fontSize=50;strokeWidth=3;fillColor=none;" vertex="1" parent="1">
                    <mxGeometry x="-1000" y="-1000" width="2000" height="2000" as="geometry"/>
                </mxCell>
                <mxCell id="3" style="edgeStyle=none;html=1;exitX=0;exitY=0;exitDx=0;exitDy=0;entryX=1;entryY=1;entryDx=0;entryDy=0;endSize=10;strokeWidth=2;" edge="1" parent="1" source="4" target="22">
                    <mxGeometry relative="1" as="geometry"/>
                </mxCell>
                <mxCell id="4" value="&lt;font face=&quot;Times New Roman&quot; style=&quot;font-size: 50px&quot;&gt;1&lt;/font&gt;" style="ellipse;whiteSpace=wrap;html=1;aspect=fixed;flipV=0;direction=north;rotation=0;strokeWidth=3;fillColor=none;" vertex="1" parent="1">
                    <mxGeometry x="290" y="-790" width="80" height="80" as="geometry"/>
                </mxCell>
                <mxCell id="5" style="edgeStyle=none;html=1;exitX=0.5;exitY=0;exitDx=0;exitDy=0;endSize=10;strokeWidth=2;entryX=0.5;entryY=1;entryDx=0;entryDy=0;" edge="1" parent="1" source="6" target="15">
                    <mxGeometry relative="1" as="geometry"/>
                </mxCell>
                <mxCell id="6" value="&lt;font face=&quot;Times New Roman&quot; style=&quot;font-size: 50px&quot;&gt;2&lt;/font&gt;" style="ellipse;whiteSpace=wrap;html=1;aspect=fixed;flipV=0;direction=north;rotation=0;strokeWidth=3;fillColor=none;" vertex="1" parent="1">
                    <mxGeometry x="500" y="200" width="80" height="80" as="geometry"/>
                </mxCell>
                <mxCell id="7" style="edgeStyle=none;html=1;entryX=0.5;entryY=0;entryDx=0;entryDy=0;endSize=10;strokeWidth=2;" edge="1" parent="1" source="8" target="30">
                    <mxGeometry relative="1" as="geometry"/>
                </mxCell>
                <mxCell id="8" value="&lt;font face=&quot;Times New Roman&quot; style=&quot;font-size: 50px&quot;&gt;3&lt;/font&gt;" style="ellipse;whiteSpace=wrap;html=1;aspect=fixed;flipV=0;direction=north;rotation=0;strokeWidth=3;fillColor=none;" vertex="1" parent="1">
                    <mxGeometry x="-390" y="590" width="80" height="80" as="geometry"/>
                </mxCell>
                <mxCell id="9" style="edgeStyle=none;html=1;exitX=1;exitY=0;exitDx=0;exitDy=0;entryX=0;entryY=1;entryDx=0;entryDy=0;endSize=10;strokeWidth=2;" edge="1" parent="1" source="10" target="4">
                    <mxGeometry relative="1" as="geometry"/>
                </mxCell>
                <mxCell id="10" value="4" style="ellipse;whiteSpace=wrap;html=1;aspect=fixed;flipV=0;direction=north;rotation=0;fontFamily=Times New Roman;fontSize=50;strokeWidth=3;fillColor=none;" vertex="1" parent="1">
                    <mxGeometry x="900" y="-250" width="80" height="80" as="geometry"/>
                </mxCell>
                <mxCell id="118" style="edgeStyle=none;html=1;exitX=0;exitY=0;exitDx=0;exitDy=0;entryX=1;entryY=0.5;entryDx=0;entryDy=0;strokeWidth=2;endSize=10;" edge="1" parent="1" source="11" target="22">
                    <mxGeometry relative="1" as="geometry"/>
                </mxCell>
                <mxCell id="11" value="&lt;font face=&quot;Times New Roman&quot; style=&quot;font-size: 50px&quot;&gt;5&lt;/font&gt;" style="ellipse;whiteSpace=wrap;html=1;aspect=fixed;flipV=0;direction=north;rotation=0;strokeWidth=3;fillColor=none;" vertex="1" parent="1">
                    <mxGeometry x="-160" y="-920" width="80" height="80" as="geometry"/>
                </mxCell>
                <mxCell id="12" value="&lt;font face=&quot;Times New Roman&quot; style=&quot;font-size: 50px&quot;&gt;6&lt;/font&gt;" style="ellipse;whiteSpace=wrap;html=1;aspect=fixed;flipV=0;direction=north;rotation=0;strokeWidth=3;fillColor=none;" vertex="1" parent="1">
                    <mxGeometry x="120" y="340" width="80" height="80" as="geometry"/>
                </mxCell>
                <mxCell id="13" value="&lt;font face=&quot;Times New Roman&quot; style=&quot;font-size: 50px&quot;&gt;7&lt;/font&gt;" style="ellipse;whiteSpace=wrap;html=1;aspect=fixed;flipV=0;direction=north;rotation=0;strokeWidth=3;fillColor=none;" vertex="1" parent="1">
                    <mxGeometry x="-60" y="450" width="80" height="80" as="geometry"/>
                </mxCell>
                <mxCell id="14" style="edgeStyle=none;html=1;exitX=1;exitY=0.5;exitDx=0;exitDy=0;entryX=0;entryY=0.5;entryDx=0;entryDy=0;strokeWidth=2;endSize=10;" edge="1" parent="1" source="15" target="30">
                    <mxGeometry relative="1" as="geometry"/>
                </mxCell>
                <mxCell id="15" value="&lt;font face=&quot;Times New Roman&quot; style=&quot;font-size: 50px&quot;&gt;8&lt;/font&gt;" style="ellipse;whiteSpace=wrap;html=1;aspect=fixed;flipV=0;direction=north;rotation=0;strokeWidth=3;fillColor=none;" vertex="1" parent="1">
                    <mxGeometry x="160" y="140" width="80" height="80" as="geometry"/>
                </mxCell>
                <mxCell id="16" style="edgeStyle=none;html=1;endSize=10;strokeWidth=2;entryX=0;entryY=0.5;entryDx=0;entryDy=0;" edge="1" parent="1" target="22">
                    <mxGeometry relative="1" as="geometry">
                        <mxPoint x="-570" y="-250" as="sourcePoint"/>
                    </mxGeometry>
                </mxCell>
                <mxCell id="17" value="&lt;font face=&quot;Times New Roman&quot; style=&quot;font-size: 50px&quot;&gt;9&lt;/font&gt;" style="ellipse;whiteSpace=wrap;html=1;aspect=fixed;flipV=0;direction=north;rotation=0;strokeWidth=3;fillColor=none;" vertex="1" parent="1">
                    <mxGeometry x="-600" y="-250" width="80" height="80" as="geometry"/>
                </mxCell>
                <mxCell id="18" value="&lt;font face=&quot;Times New Roman&quot; style=&quot;font-size: 50px&quot;&gt;10&lt;/font&gt;" style="ellipse;whiteSpace=wrap;html=1;aspect=fixed;flipV=0;direction=north;rotation=0;strokeWidth=3;fillColor=none;" vertex="1" parent="1">
                    <mxGeometry x="-160" y="-20" width="80" height="80" as="geometry"/>
                </mxCell>
                <mxCell id="19" style="edgeStyle=none;html=1;exitX=1;exitY=0.5;exitDx=0;exitDy=0;entryX=0;entryY=0.5;entryDx=0;entryDy=0;endSize=10;strokeWidth=2;" edge="1" parent="1" source="20" target="4">
                    <mxGeometry relative="1" as="geometry"/>
                </mxCell>
                <mxCell id="20" value="&lt;font style=&quot;font-size: 50px&quot; face=&quot;Times New Roman&quot;&gt;11&lt;/font&gt;" style="ellipse;whiteSpace=wrap;html=1;aspect=fixed;flipV=0;direction=north;rotation=0;strokeWidth=3;fillColor=none;" vertex="1" parent="1">
                    <mxGeometry x="320" y="-600" width="80" height="80" as="geometry"/>
                </mxCell>
                <mxCell id="22" value="&lt;font face=&quot;Times New Roman&quot; style=&quot;font-size: 50px&quot;&gt;12&lt;/font&gt;" style="ellipse;whiteSpace=wrap;html=1;aspect=fixed;flipV=0;direction=north;rotation=0;strokeWidth=3;fillColor=none;" vertex="1" parent="1">
                    <mxGeometry x="-650" y="-450" width="80" height="80" as="geometry"/>
                </mxCell>
                <mxCell id="23" style="edgeStyle=none;html=1;exitX=0.5;exitY=0;exitDx=0;exitDy=0;endSize=10;strokeWidth=2;" edge="1" parent="1" source="24">
                    <mxGeometry relative="1" as="geometry">
                        <mxPoint x="-570" y="-410" as="targetPoint"/>
                    </mxGeometry>
                </mxCell>
                <mxCell id="24" value="&lt;font face=&quot;Times New Roman&quot; style=&quot;font-size: 50px&quot;&gt;13&lt;/font&gt;" style="ellipse;whiteSpace=wrap;html=1;aspect=fixed;flipV=0;direction=north;rotation=0;strokeWidth=3;fillColor=none;" vertex="1" parent="1">
                    <mxGeometry x="-290" y="-440" width="80" height="80" as="geometry"/>
                </mxCell>
                <mxCell id="25" style="edgeStyle=none;html=1;exitX=1;exitY=0;exitDx=0;exitDy=0;endSize=10;strokeWidth=2;entryX=0;entryY=1;entryDx=0;entryDy=0;" edge="1" parent="1" source="26" target="30">
                    <mxGeometry relative="1" as="geometry"/>
                </mxCell>
                <mxCell id="26" value="&lt;font face=&quot;Times New Roman&quot; style=&quot;font-size: 50px&quot;&gt;14&lt;/font&gt;" style="ellipse;whiteSpace=wrap;html=1;aspect=fixed;flipV=0;direction=north;rotation=0;strokeWidth=3;fillColor=none;" vertex="1" parent="1">
                    <mxGeometry x="590" y="560" width="80" height="80" as="geometry"/>
                </mxCell>
                <mxCell id="27" style="edgeStyle=none;html=1;exitX=1;exitY=0.5;exitDx=0;exitDy=0;endSize=10;strokeWidth=2;entryX=0;entryY=0;entryDx=0;entryDy=0;" edge="1" parent="1" source="28" target="22">
                    <mxGeometry relative="1" as="geometry">
                        <mxPoint x="-390" y="610" as="targetPoint"/>
                    </mxGeometry>
                </mxCell>
                <mxCell id="28" value="&lt;font face=&quot;Times New Roman&quot; style=&quot;font-size: 50px&quot;&gt;15&lt;/font&gt;" style="ellipse;whiteSpace=wrap;html=1;aspect=fixed;flipV=0;direction=north;rotation=0;strokeWidth=3;fillColor=none;" vertex="1" parent="1">
                    <mxGeometry x="-640" y="420" width="80" height="80" as="geometry"/>
                </mxCell>
                <mxCell id="29" style="edgeStyle=none;html=1;strokeWidth=2;endSize=10;entryX=0.302;entryY=0.963;entryDx=0;entryDy=0;entryPerimeter=0;" edge="1" parent="1" target="22">
                    <mxGeometry relative="1" as="geometry">
                        <mxPoint x="120" y="-130" as="sourcePoint"/>
                        <mxPoint x="-570" y="-390" as="targetPoint"/>
                    </mxGeometry>
                </mxCell>
                <mxCell id="30" value="&lt;font face=&quot;Times New Roman&quot; style=&quot;font-size: 50px&quot;&gt;16&lt;/font&gt;" style="ellipse;whiteSpace=wrap;html=1;aspect=fixed;flipV=0;direction=north;rotation=0;strokeWidth=3;fillColor=none;" vertex="1" parent="1">
                    <mxGeometry x="90" y="-130" width="80" height="80" as="geometry"/>
                </mxCell>
                <mxCell id="31" style="edgeStyle=none;html=1;exitX=0.5;exitY=1;exitDx=0;exitDy=0;endSize=10;strokeWidth=2;entryX=0.5;entryY=0;entryDx=0;entryDy=0;" edge="1" parent="1" source="32" target="10">
                    <mxGeometry relative="1" as="geometry">
                        <mxPoint x="390.0000000000009" y="-530" as="targetPoint"/>
                    </mxGeometry>
                </mxCell>
                <mxCell id="32" value="&lt;font face=&quot;Times New Roman&quot; style=&quot;font-size: 50px&quot;&gt;17&lt;/font&gt;" style="ellipse;whiteSpace=wrap;html=1;aspect=fixed;flipV=0;direction=north;rotation=0;strokeWidth=3;fillColor=none;" vertex="1" parent="1">
                    <mxGeometry x="690" y="-250" width="80" height="80" as="geometry"/>
                </mxCell>
                <mxCell id="33" value="&lt;font face=&quot;Times New Roman&quot; style=&quot;font-size: 50px&quot;&gt;18&lt;/font&gt;" style="ellipse;whiteSpace=wrap;html=1;aspect=fixed;flipV=0;direction=north;rotation=0;strokeWidth=3;fillColor=none;" vertex="1" parent="1">
                    <mxGeometry x="330" y="390" width="80" height="80" as="geometry"/>
                </mxCell>
                <mxCell id="34" value="&lt;font face=&quot;Times New Roman&quot;&gt;&lt;span style=&quot;font-size: 50px&quot;&gt;19&lt;br&gt;&lt;/span&gt;&lt;/font&gt;" style="ellipse;whiteSpace=wrap;html=1;aspect=fixed;flipV=0;direction=north;rotation=0;strokeWidth=3;fillColor=none;" vertex="1" parent="1">
                    <mxGeometry x="-100" y="640" width="80" height="80" as="geometry"/>
                </mxCell>
                <mxCell id="35" value="&lt;font face=&quot;Times New Roman&quot; style=&quot;font-size: 50px&quot;&gt;20&lt;/font&gt;" style="ellipse;whiteSpace=wrap;html=1;aspect=fixed;flipV=0;direction=north;rotation=0;strokeWidth=3;fillColor=none;" vertex="1" parent="1">
                    <mxGeometry x="150" y="710" width="80" height="80" as="geometry"/>
                </mxCell>
                <mxCell id="36" value="" style="rounded=0;whiteSpace=wrap;html=1;fontFamily=Times New Roman;fontSize=50;fillColor=none;" vertex="1" parent="1">
                    <mxGeometry x="620" y="-1040" width="410" height="250" as="geometry"/>
                </mxCell>
                <mxCell id="37" value="" style="ellipse;whiteSpace=wrap;html=1;aspect=fixed;flipV=0;direction=north;rotation=0;strokeWidth=3;fillColor=none;" vertex="1" parent="1">
                    <mxGeometry x="640" y="-1015" width="80" height="80" as="geometry"/>
                </mxCell>
                <mxCell id="38" value="&lt;font face=&quot;宋体&quot;&gt;传感器节点&lt;/font&gt;" style="text;html=1;strokeColor=none;fillColor=none;align=center;verticalAlign=middle;whiteSpace=wrap;rounded=0;fontFamily=Times New Roman;fontSize=50;" vertex="1" parent="1">
                    <mxGeometry x="730" y="-990" width="300" height="30" as="geometry"/>
                </mxCell>
                <mxCell id="39" value="" style="group;strokeWidth=5;" vertex="1" connectable="0" parent="1">
                    <mxGeometry x="-1130" y="-1153" width="2276" height="2220" as="geometry"/>
                </mxCell>
                <mxCell id="40" value="" style="group" vertex="1" connectable="0" parent="39">
                    <mxGeometry y="2136" width="2276" height="84" as="geometry"/>
                </mxCell>
                <mxCell id="41" value="" style="endArrow=classic;html=1;fontFamily=宋体;fontSize=50;strokeWidth=5;" edge="1" parent="40">
                    <mxGeometry width="50" height="50" relative="1" as="geometry">
                        <mxPoint x="110" y="14" as="sourcePoint"/>
                        <mxPoint x="2210" y="14" as="targetPoint"/>
                    </mxGeometry>
                </mxCell>
                <mxCell id="42" value="&lt;font face=&quot;Times New Roman&quot;&gt;-100&lt;/font&gt;" style="text;html=1;strokeColor=none;fillColor=none;align=center;verticalAlign=middle;whiteSpace=wrap;rounded=0;fontFamily=宋体;fontSize=50;" vertex="1" parent="40">
                    <mxGeometry y="54" width="60" height="30" as="geometry"/>
                </mxCell>
                <mxCell id="43" value="" style="group;rotation=90;" vertex="1" connectable="0" parent="40">
                    <mxGeometry x="1097.5" y="-976" width="25" height="2000" as="geometry"/>
                </mxCell>
                <mxCell id="44" value="" style="endArrow=none;html=1;fontFamily=Times New Roman;fontSize=50;strokeWidth=5;" edge="1" parent="43">
                    <mxGeometry width="50" height="50" relative="1" as="geometry">
                        <mxPoint x="-987" y="988" as="sourcePoint"/>
                        <mxPoint x="-987" y="1013" as="targetPoint"/>
                    </mxGeometry>
                </mxCell>
                <mxCell id="45" value="" style="endArrow=none;html=1;fontFamily=Times New Roman;fontSize=50;strokeWidth=5;" edge="1" parent="43">
                    <mxGeometry width="50" height="50" relative="1" as="geometry">
                        <mxPoint x="13" y="988" as="sourcePoint"/>
                        <mxPoint x="13" y="1013" as="targetPoint"/>
                    </mxGeometry>
                </mxCell>
                <mxCell id="46" value="" style="endArrow=none;html=1;fontFamily=Times New Roman;fontSize=50;strokeWidth=5;" edge="1" parent="43">
                    <mxGeometry width="50" height="50" relative="1" as="geometry">
                        <mxPoint x="-487" y="988" as="sourcePoint"/>
                        <mxPoint x="-487" y="1013" as="targetPoint"/>
                    </mxGeometry>
                </mxCell>
                <mxCell id="47" value="" style="endArrow=none;html=1;fontFamily=Times New Roman;fontSize=50;strokeWidth=5;" edge="1" parent="43">
                    <mxGeometry width="50" height="50" relative="1" as="geometry">
                        <mxPoint x="513" y="988" as="sourcePoint"/>
                        <mxPoint x="513" y="1013" as="targetPoint"/>
                    </mxGeometry>
                </mxCell>
                <mxCell id="48" value="" style="group;rotation=90;" vertex="1" connectable="0" parent="43">
                    <mxGeometry x="-250" y="500" width="25" height="1000" as="geometry"/>
                </mxCell>
                <mxCell id="49" value="" style="endArrow=none;html=1;fontFamily=Times New Roman;fontSize=50;strokeWidth=5;" edge="1" parent="48">
                    <mxGeometry width="50" height="50" relative="1" as="geometry">
                        <mxPoint x="-487" y="488" as="sourcePoint"/>
                        <mxPoint x="-487" y="513" as="targetPoint"/>
                    </mxGeometry>
                </mxCell>
                <mxCell id="50" value="" style="endArrow=none;html=1;fontFamily=Times New Roman;fontSize=50;strokeWidth=5;" edge="1" parent="48">
                    <mxGeometry width="50" height="50" relative="1" as="geometry">
                        <mxPoint x="513" y="487" as="sourcePoint"/>
                        <mxPoint x="513" y="513" as="targetPoint"/>
                    </mxGeometry>
                </mxCell>
                <mxCell id="51" value="" style="group;rotation=90;" vertex="1" connectable="0" parent="43">
                    <mxGeometry x="250" y="500" width="25" height="1000" as="geometry"/>
                </mxCell>
                <mxCell id="52" value="" style="endArrow=none;html=1;fontFamily=Times New Roman;fontSize=50;strokeWidth=5;" edge="1" parent="51">
                    <mxGeometry width="50" height="50" relative="1" as="geometry">
                        <mxPoint x="-487" y="488" as="sourcePoint"/>
                        <mxPoint x="-487" y="513" as="targetPoint"/>
                    </mxGeometry>
                </mxCell>
                <mxCell id="53" value="" style="endArrow=none;html=1;fontFamily=Times New Roman;fontSize=50;strokeWidth=5;" edge="1" parent="51">
                    <mxGeometry width="50" height="50" relative="1" as="geometry">
                        <mxPoint x="513" y="487" as="sourcePoint"/>
                        <mxPoint x="513" y="513" as="targetPoint"/>
                    </mxGeometry>
                </mxCell>
                <mxCell id="54" value="" style="endArrow=none;html=1;fontFamily=Times New Roman;fontSize=50;strokeWidth=5;" edge="1" parent="43">
                    <mxGeometry width="50" height="50" relative="1" as="geometry">
                        <mxPoint x="1013" y="987" as="sourcePoint"/>
                        <mxPoint x="1013" y="1012" as="targetPoint"/>
                    </mxGeometry>
                </mxCell>
                <mxCell id="55" value="&lt;font face=&quot;Times New Roman&quot;&gt;100&lt;/font&gt;" style="text;html=1;strokeColor=none;fillColor=none;align=center;verticalAlign=middle;whiteSpace=wrap;rounded=0;fontFamily=宋体;fontSize=50;" vertex="1" parent="40">
                    <mxGeometry x="2080" y="54" width="60" height="30" as="geometry"/>
                </mxCell>
                <mxCell id="56" value="&lt;font face=&quot;Times New Roman&quot;&gt;0&lt;/font&gt;" style="text;html=1;strokeColor=none;fillColor=none;align=center;verticalAlign=middle;whiteSpace=wrap;rounded=0;fontFamily=宋体;fontSize=50;" vertex="1" parent="40">
                    <mxGeometry x="1080" y="54" width="60" height="30" as="geometry"/>
                </mxCell>
                <mxCell id="57" value="&lt;font face=&quot;Times New Roman&quot;&gt;75&lt;/font&gt;" style="text;html=1;strokeColor=none;fillColor=none;align=center;verticalAlign=middle;whiteSpace=wrap;rounded=0;fontFamily=宋体;fontSize=50;" vertex="1" parent="40">
                    <mxGeometry x="1830" y="54" width="60" height="30" as="geometry"/>
                </mxCell>
                <mxCell id="58" value="&lt;font face=&quot;Times New Roman&quot;&gt;50&lt;/font&gt;" style="text;html=1;strokeColor=none;fillColor=none;align=center;verticalAlign=middle;whiteSpace=wrap;rounded=0;fontFamily=宋体;fontSize=50;" vertex="1" parent="40">
                    <mxGeometry x="1580" y="54" width="60" height="30" as="geometry"/>
                </mxCell>
                <mxCell id="59" value="&lt;font face=&quot;Times New Roman&quot;&gt;25&lt;/font&gt;" style="text;html=1;strokeColor=none;fillColor=none;align=center;verticalAlign=middle;whiteSpace=wrap;rounded=0;fontFamily=宋体;fontSize=50;" vertex="1" parent="40">
                    <mxGeometry x="1330" y="54" width="60" height="30" as="geometry"/>
                </mxCell>
                <mxCell id="60" value="&lt;font face=&quot;Times New Roman&quot;&gt;-25&lt;/font&gt;" style="text;html=1;strokeColor=none;fillColor=none;align=center;verticalAlign=middle;whiteSpace=wrap;rounded=0;fontFamily=宋体;fontSize=50;" vertex="1" parent="40">
                    <mxGeometry x="830" y="54" width="60" height="30" as="geometry"/>
                </mxCell>
                <mxCell id="61" value="&lt;font face=&quot;Times New Roman&quot;&gt;-50&lt;/font&gt;" style="text;html=1;strokeColor=none;fillColor=none;align=center;verticalAlign=middle;whiteSpace=wrap;rounded=0;fontFamily=宋体;fontSize=50;" vertex="1" parent="40">
                    <mxGeometry x="580" y="54" width="60" height="30" as="geometry"/>
                </mxCell>
                <mxCell id="62" value="&lt;font face=&quot;Times New Roman&quot;&gt;-75&lt;/font&gt;" style="text;html=1;strokeColor=none;fillColor=none;align=center;verticalAlign=middle;whiteSpace=wrap;rounded=0;fontFamily=宋体;fontSize=50;" vertex="1" parent="40">
                    <mxGeometry x="320" y="54" width="60" height="30" as="geometry"/>
                </mxCell>
                <mxCell id="63" value="米" style="text;html=1;strokeColor=none;fillColor=none;align=center;verticalAlign=middle;whiteSpace=wrap;rounded=0;fontFamily=宋体;fontSize=50;" vertex="1" parent="40">
                    <mxGeometry x="2216" width="60" height="30" as="geometry"/>
                </mxCell>
                <mxCell id="64" value="" style="group" vertex="1" connectable="0" parent="39">
                    <mxGeometry width="140" height="2150" as="geometry"/>
                </mxCell>
                <mxCell id="65" value="" style="endArrow=classic;html=1;fontFamily=宋体;fontSize=50;strokeWidth=5;" edge="1" parent="64">
                    <mxGeometry width="50" height="50" relative="1" as="geometry">
                        <mxPoint x="110" y="2150" as="sourcePoint"/>
                        <mxPoint x="110" y="50" as="targetPoint"/>
                    </mxGeometry>
                </mxCell>
                <mxCell id="66" value="" style="group" vertex="1" connectable="0" parent="64">
                    <mxGeometry x="85" y="150" width="25" height="2000" as="geometry"/>
                </mxCell>
                <mxCell id="67" value="" style="endArrow=none;html=1;fontFamily=Times New Roman;fontSize=50;strokeWidth=5;" edge="1" parent="66">
                    <mxGeometry width="50" height="50" relative="1" as="geometry">
                        <mxPoint y="2000" as="sourcePoint"/>
                        <mxPoint x="25" y="2000" as="targetPoint"/>
                    </mxGeometry>
                </mxCell>
                <mxCell id="68" value="" style="endArrow=none;html=1;fontFamily=Times New Roman;fontSize=50;strokeWidth=5;" edge="1" parent="66">
                    <mxGeometry width="50" height="50" relative="1" as="geometry">
                        <mxPoint y="1000" as="sourcePoint"/>
                        <mxPoint x="25" y="1000" as="targetPoint"/>
                    </mxGeometry>
                </mxCell>
                <mxCell id="69" value="" style="endArrow=none;html=1;fontFamily=Times New Roman;fontSize=50;strokeWidth=5;" edge="1" parent="66">
                    <mxGeometry width="50" height="50" relative="1" as="geometry">
                        <mxPoint y="1500" as="sourcePoint"/>
                        <mxPoint x="25" y="1500" as="targetPoint"/>
                    </mxGeometry>
                </mxCell>
                <mxCell id="70" value="" style="endArrow=none;html=1;fontFamily=Times New Roman;fontSize=50;strokeWidth=5;" edge="1" parent="66">
                    <mxGeometry width="50" height="50" relative="1" as="geometry">
                        <mxPoint y="500" as="sourcePoint"/>
                        <mxPoint x="25" y="500" as="targetPoint"/>
                    </mxGeometry>
                </mxCell>
                <mxCell id="71" value="" style="group" vertex="1" connectable="0" parent="66">
                    <mxGeometry y="750" width="25" height="1000" as="geometry"/>
                </mxCell>
                <mxCell id="72" value="" style="endArrow=none;html=1;fontFamily=Times New Roman;fontSize=50;strokeWidth=5;" edge="1" parent="71">
                    <mxGeometry width="50" height="50" relative="1" as="geometry">
                        <mxPoint y="1000" as="sourcePoint"/>
                        <mxPoint x="25" y="1000" as="targetPoint"/>
                    </mxGeometry>
                </mxCell>
                <mxCell id="73" value="" style="endArrow=none;html=1;fontFamily=Times New Roman;fontSize=50;strokeWidth=5;" edge="1" parent="71">
                    <mxGeometry width="50" height="50" relative="1" as="geometry">
                        <mxPoint as="sourcePoint"/>
                        <mxPoint x="25" as="targetPoint"/>
                    </mxGeometry>
                </mxCell>
                <mxCell id="74" value="" style="group" vertex="1" connectable="0" parent="66">
                    <mxGeometry y="250" width="25" height="1000" as="geometry"/>
                </mxCell>
                <mxCell id="75" value="" style="endArrow=none;html=1;fontFamily=Times New Roman;fontSize=50;strokeWidth=5;" edge="1" parent="74">
                    <mxGeometry width="50" height="50" relative="1" as="geometry">
                        <mxPoint y="1000" as="sourcePoint"/>
                        <mxPoint x="25" y="1000" as="targetPoint"/>
                    </mxGeometry>
                </mxCell>
                <mxCell id="76" value="" style="endArrow=none;html=1;fontFamily=Times New Roman;fontSize=50;strokeWidth=5;" edge="1" parent="74">
                    <mxGeometry width="50" height="50" relative="1" as="geometry">
                        <mxPoint as="sourcePoint"/>
                        <mxPoint x="25" as="targetPoint"/>
                    </mxGeometry>
                </mxCell>
                <mxCell id="77" value="" style="endArrow=none;html=1;fontFamily=Times New Roman;fontSize=50;strokeWidth=5;" edge="1" parent="66">
                    <mxGeometry width="50" height="50" relative="1" as="geometry">
                        <mxPoint as="sourcePoint"/>
                        <mxPoint x="25" as="targetPoint"/>
                    </mxGeometry>
                </mxCell>
                <mxCell id="78" value="&lt;font face=&quot;Times New Roman&quot;&gt;100&lt;/font&gt;" style="text;html=1;strokeColor=none;fillColor=none;align=center;verticalAlign=middle;whiteSpace=wrap;rounded=0;fontFamily=宋体;fontSize=50;" vertex="1" parent="64">
                    <mxGeometry y="135" width="60" height="30" as="geometry"/>
                </mxCell>
                <mxCell id="79" value="&lt;font face=&quot;Times New Roman&quot;&gt;0&lt;/font&gt;" style="text;html=1;strokeColor=none;fillColor=none;align=center;verticalAlign=middle;whiteSpace=wrap;rounded=0;fontFamily=宋体;fontSize=50;" vertex="1" parent="64">
                    <mxGeometry y="1135" width="60" height="30" as="geometry"/>
                </mxCell>
                <mxCell id="80" value="&lt;font face=&quot;Times New Roman&quot;&gt;75&lt;/font&gt;" style="text;html=1;strokeColor=none;fillColor=none;align=center;verticalAlign=middle;whiteSpace=wrap;rounded=0;fontFamily=宋体;fontSize=50;" vertex="1" parent="64">
                    <mxGeometry y="385" width="60" height="30" as="geometry"/>
                </mxCell>
                <mxCell id="81" value="&lt;font face=&quot;Times New Roman&quot;&gt;50&lt;/font&gt;" style="text;html=1;strokeColor=none;fillColor=none;align=center;verticalAlign=middle;whiteSpace=wrap;rounded=0;fontFamily=宋体;fontSize=50;" vertex="1" parent="64">
                    <mxGeometry y="630" width="60" height="30" as="geometry"/>
                </mxCell>
                <mxCell id="82" value="&lt;font face=&quot;Times New Roman&quot;&gt;25&lt;/font&gt;" style="text;html=1;strokeColor=none;fillColor=none;align=center;verticalAlign=middle;whiteSpace=wrap;rounded=0;fontFamily=宋体;fontSize=50;" vertex="1" parent="64">
                    <mxGeometry y="880" width="60" height="30" as="geometry"/>
                </mxCell>
                <mxCell id="83" value="&lt;font face=&quot;Times New Roman&quot;&gt;-25&lt;/font&gt;" style="text;html=1;strokeColor=none;fillColor=none;align=center;verticalAlign=middle;whiteSpace=wrap;rounded=0;fontFamily=宋体;fontSize=50;" vertex="1" parent="64">
                    <mxGeometry y="1380" width="60" height="30" as="geometry"/>
                </mxCell>
                <mxCell id="84" value="&lt;font face=&quot;Times New Roman&quot;&gt;-50&lt;/font&gt;" style="text;html=1;strokeColor=none;fillColor=none;align=center;verticalAlign=middle;whiteSpace=wrap;rounded=0;fontFamily=宋体;fontSize=50;" vertex="1" parent="64">
                    <mxGeometry y="1630" width="60" height="30" as="geometry"/>
                </mxCell>
                <mxCell id="85" value="&lt;font face=&quot;Times New Roman&quot;&gt;-75&lt;/font&gt;" style="text;html=1;strokeColor=none;fillColor=none;align=center;verticalAlign=middle;whiteSpace=wrap;rounded=0;fontFamily=宋体;fontSize=50;" vertex="1" parent="64">
                    <mxGeometry y="1880" width="60" height="30" as="geometry"/>
                </mxCell>
                <mxCell id="86" value="米" style="text;html=1;strokeColor=none;fillColor=none;align=center;verticalAlign=middle;whiteSpace=wrap;rounded=0;fontFamily=宋体;fontSize=50;" vertex="1" parent="64">
                    <mxGeometry x="80" width="60" height="30" as="geometry"/>
                </mxCell>
                <mxCell id="87" value="&lt;font face=&quot;宋体&quot;&gt;悬停节点&lt;/font&gt;" style="text;html=1;strokeColor=none;fillColor=none;align=center;verticalAlign=middle;whiteSpace=wrap;rounded=0;fontFamily=Times New Roman;fontSize=50;" vertex="1" parent="39">
                    <mxGeometry x="1840" y="285" width="300" height="30" as="geometry"/>
                </mxCell>
                <mxCell id="89" value="&lt;font face=&quot;Times New Roman&quot; style=&quot;font-size: 40px&quot;&gt;23%&lt;/font&gt;" style="text;html=1;strokeColor=none;fillColor=none;align=center;verticalAlign=middle;whiteSpace=wrap;rounded=0;" vertex="1" parent="39">
                    <mxGeometry x="407" y="728" width="60" height="30" as="geometry"/>
                </mxCell>
                <mxCell id="90" value="&lt;font face=&quot;Times New Roman&quot; style=&quot;font-size: 40px&quot;&gt;20%&lt;/font&gt;" style="text;html=1;strokeColor=none;fillColor=none;align=center;verticalAlign=middle;whiteSpace=wrap;rounded=0;" vertex="1" parent="39">
                    <mxGeometry x="620" y="941" width="60" height="30" as="geometry"/>
                </mxCell>
                <mxCell id="91" value="&lt;font face=&quot;Times New Roman&quot; style=&quot;font-size: 40px&quot;&gt;21%&lt;/font&gt;" style="text;html=1;strokeColor=none;fillColor=none;align=center;verticalAlign=middle;whiteSpace=wrap;rounded=0;" vertex="1" parent="39">
                    <mxGeometry x="848" y="796" width="60" height="30" as="geometry"/>
                </mxCell>
                <mxCell id="92" value="&lt;font face=&quot;Times New Roman&quot; style=&quot;font-size: 40px&quot;&gt;21%&lt;/font&gt;" style="text;html=1;strokeColor=none;fillColor=none;align=center;verticalAlign=middle;whiteSpace=wrap;rounded=0;" vertex="1" parent="39">
                    <mxGeometry x="1064" y="255" width="57" height="30" as="geometry"/>
                </mxCell>
                <mxCell id="93" value="&lt;font face=&quot;Times New Roman&quot; style=&quot;font-size: 40px&quot;&gt;22%&lt;/font&gt;" style="text;html=1;strokeColor=none;fillColor=none;align=center;verticalAlign=middle;whiteSpace=wrap;rounded=0;" vertex="1" parent="39">
                    <mxGeometry x="1520" y="391" width="60" height="30" as="geometry"/>
                </mxCell>
                <mxCell id="94" value="&lt;font face=&quot;Times New Roman&quot; style=&quot;font-size: 40px&quot;&gt;20%&lt;/font&gt;" style="text;html=1;strokeColor=none;fillColor=none;align=center;verticalAlign=middle;whiteSpace=wrap;rounded=0;" vertex="1" parent="39">
                    <mxGeometry x="980" y="1223" width="60" height="30" as="geometry"/>
                </mxCell>
                <mxCell id="95" value="&lt;font face=&quot;Times New Roman&quot; style=&quot;font-size: 40px&quot;&gt;21%&lt;/font&gt;" style="text;html=1;strokeColor=none;fillColor=none;align=center;verticalAlign=middle;whiteSpace=wrap;rounded=0;" vertex="1" parent="39">
                    <mxGeometry x="1359" y="1366" width="60" height="30" as="geometry"/>
                </mxCell>
                <mxCell id="96" value="&lt;font face=&quot;Times New Roman&quot; style=&quot;font-size: 40px&quot;&gt;18%&lt;/font&gt;" style="text;html=1;strokeColor=none;fillColor=none;align=center;verticalAlign=middle;whiteSpace=wrap;rounded=0;" vertex="1" parent="39">
                    <mxGeometry x="1723" y="1380" width="60" height="30" as="geometry"/>
                </mxCell>
                <mxCell id="97" value="&lt;font face=&quot;Times New Roman&quot; style=&quot;font-size: 40px&quot;&gt;20%&lt;/font&gt;" style="text;html=1;strokeColor=none;fillColor=none;align=center;verticalAlign=middle;whiteSpace=wrap;rounded=0;" vertex="1" parent="39">
                    <mxGeometry x="1270" y="1581" width="60" height="30" as="geometry"/>
                </mxCell>
                <mxCell id="98" value="&lt;font face=&quot;Times New Roman&quot; style=&quot;font-size: 40px&quot;&gt;15%&lt;/font&gt;" style="text;html=1;strokeColor=none;fillColor=none;align=center;verticalAlign=middle;whiteSpace=wrap;rounded=0;" vertex="1" parent="39">
                    <mxGeometry x="1470" y="1631" width="60" height="30" as="geometry"/>
                </mxCell>
                <mxCell id="99" value="&lt;font face=&quot;Times New Roman&quot; style=&quot;font-size: 40px&quot;&gt;21%&lt;/font&gt;" style="text;html=1;strokeColor=none;fillColor=none;align=center;verticalAlign=middle;whiteSpace=wrap;rounded=0;" vertex="1" parent="39">
                    <mxGeometry x="750" y="1831" width="60" height="30" as="geometry"/>
                </mxCell>
                <mxCell id="100" value="&lt;font face=&quot;Times New Roman&quot; style=&quot;font-size: 40px&quot;&gt;20%&lt;/font&gt;" style="text;html=1;strokeColor=none;fillColor=none;align=center;verticalAlign=middle;whiteSpace=wrap;rounded=0;" vertex="1" parent="39">
                    <mxGeometry x="1050" y="1881" width="60" height="30" as="geometry"/>
                </mxCell>
                <mxCell id="101" value="&lt;font face=&quot;Times New Roman&quot; style=&quot;font-size: 40px&quot;&gt;19%&lt;/font&gt;" style="text;html=1;strokeColor=none;fillColor=none;align=center;verticalAlign=middle;whiteSpace=wrap;rounded=0;" vertex="1" parent="39">
                    <mxGeometry x="1295" y="1951" width="60" height="30" as="geometry"/>
                </mxCell>
                <mxCell id="102" value="&lt;font face=&quot;Times New Roman&quot; style=&quot;font-size: 40px&quot;&gt;20%&lt;/font&gt;" style="text;html=1;strokeColor=none;fillColor=none;align=center;verticalAlign=middle;whiteSpace=wrap;rounded=0;" vertex="1" parent="39">
                    <mxGeometry x="1730" y="1811" width="60" height="30" as="geometry"/>
                </mxCell>
                <mxCell id="103" value="&lt;font face=&quot;Times New Roman&quot; style=&quot;font-size: 40px&quot;&gt;23%&lt;/font&gt;" style="text;html=1;strokeColor=none;fillColor=none;align=center;verticalAlign=middle;whiteSpace=wrap;rounded=0;" vertex="1" parent="39">
                    <mxGeometry x="2050" y="991" width="60" height="30" as="geometry"/>
                </mxCell>
                <mxCell id="104" value="&lt;font face=&quot;Times New Roman&quot; style=&quot;font-size: 40px&quot;&gt;18%&lt;/font&gt;" style="text;html=1;strokeColor=none;fillColor=none;align=center;verticalAlign=middle;whiteSpace=wrap;rounded=0;" vertex="1" parent="39">
                    <mxGeometry x="1840" y="991" width="60" height="30" as="geometry"/>
                </mxCell>
                <mxCell id="105" value="&lt;font face=&quot;Times New Roman&quot; style=&quot;font-size: 40px&quot;&gt;21%&lt;/font&gt;" style="text;html=1;strokeColor=none;fillColor=none;align=center;verticalAlign=middle;whiteSpace=wrap;rounded=0;" vertex="1" parent="39">
                    <mxGeometry x="1460" y="651" width="60" height="30" as="geometry"/>
                </mxCell>
                <mxCell id="117" value="" style="rhombus;whiteSpace=wrap;html=1;strokeWidth=2;fillColor=none;" vertex="1" parent="39">
                    <mxGeometry x="484" y="708" width="70" height="70" as="geometry"/>
                </mxCell>
                <mxCell id="115" value="&lt;font face=&quot;Times New Roman&quot; style=&quot;font-size: 40px&quot;&gt;21%&lt;/font&gt;" style="text;html=1;strokeColor=none;fillColor=none;align=center;verticalAlign=middle;whiteSpace=wrap;rounded=0;" vertex="1" parent="39">
                    <mxGeometry x="1010" y="1661" width="60" height="30" as="geometry"/>
                </mxCell>
                <mxCell id="106" value="" style="ellipse;whiteSpace=wrap;html=1;aspect=fixed;flipV=0;direction=north;rotation=0;strokeWidth=3;fillColor=none;" vertex="1" parent="1">
                    <mxGeometry x="640" y="-890" width="80" height="80" as="geometry"/>
                </mxCell>
                <mxCell id="107" value="" style="rhombus;whiteSpace=wrap;html=1;strokeWidth=2;fillColor=none;" vertex="1" parent="1">
                    <mxGeometry x="645" y="-885" width="70" height="70" as="geometry"/>
                </mxCell>
                <mxCell id="108" style="edgeStyle=none;html=1;exitX=1;exitY=0;exitDx=0;exitDy=0;strokeWidth=2;endSize=10;entryX=0;entryY=1;entryDx=0;entryDy=0;" edge="1" parent="1" source="18" target="22">
                    <mxGeometry relative="1" as="geometry">
                        <mxPoint x="210" y="150" as="sourcePoint"/>
                        <mxPoint x="-120" y="-840" as="targetPoint"/>
                    </mxGeometry>
                </mxCell>
                <mxCell id="109" style="edgeStyle=none;html=1;entryX=0;entryY=0.5;entryDx=0;entryDy=0;strokeWidth=2;endSize=10;exitX=1;exitY=0.5;exitDx=0;exitDy=0;" edge="1" parent="1" target="15" source="12">
                    <mxGeometry relative="1" as="geometry">
                        <mxPoint x="200" y="390" as="sourcePoint"/>
                        <mxPoint x="111.71572875246602" y="-51.715728752466475" as="targetPoint"/>
                    </mxGeometry>
                </mxCell>
                <mxCell id="110" style="edgeStyle=none;html=1;strokeWidth=2;endSize=10;entryX=0;entryY=0;entryDx=0;entryDy=0;exitX=1;exitY=0.5;exitDx=0;exitDy=0;" edge="1" parent="1" source="13" target="30">
                    <mxGeometry relative="1" as="geometry">
                        <mxPoint x="8" y="462" as="sourcePoint"/>
                        <mxPoint x="130" y="400" as="targetPoint"/>
                    </mxGeometry>
                </mxCell>
                <mxCell id="111" style="edgeStyle=none;html=1;strokeWidth=2;endSize=10;entryX=0.5;entryY=1;entryDx=0;entryDy=0;" edge="1" parent="1" target="12">
                    <mxGeometry relative="1" as="geometry">
                        <mxPoint x="330" y="410" as="sourcePoint"/>
                        <mxPoint x="-120" y="60" as="targetPoint"/>
                    </mxGeometry>
                </mxCell>
                <mxCell id="112" style="edgeStyle=none;html=1;strokeWidth=2;exitX=1;exitY=0.5;exitDx=0;exitDy=0;endSize=10;" edge="1" parent="1" source="34">
                    <mxGeometry relative="1" as="geometry">
                        <mxPoint x="340.000000000025" y="440" as="sourcePoint"/>
                        <mxPoint x="-30" y="530" as="targetPoint"/>
                    </mxGeometry>
                </mxCell>
                <mxCell id="113" style="edgeStyle=none;html=1;entryX=0;entryY=1;entryDx=0;entryDy=0;strokeWidth=2;endSize=10;exitX=1;exitY=0.5;exitDx=0;exitDy=0;" edge="1" parent="1" source="35" target="13">
                    <mxGeometry relative="1" as="geometry">
                        <mxPoint x="130" y="730" as="sourcePoint"/>
                        <mxPoint x="-38.28427124746213" y="528.2842712474621" as="targetPoint"/>
                    </mxGeometry>
                </mxCell>
                <mxCell id="114" value="&lt;font face=&quot;Times New Roman&quot; style=&quot;font-size: 40px&quot;&gt;20%&lt;/font&gt;" style="text;html=1;strokeColor=none;fillColor=none;align=center;verticalAlign=middle;whiteSpace=wrap;rounded=0;" vertex="1" parent="1">
                    <mxGeometry x="180" y="-101" width="60" height="30" as="geometry"/>
                </mxCell>
                <mxCell id="116" value="&lt;font face=&quot;Times New Roman&quot; style=&quot;font-size: 40px&quot;&gt;20%&lt;/font&gt;" style="text;html=1;strokeColor=none;fillColor=none;align=center;verticalAlign=middle;whiteSpace=wrap;rounded=0;" vertex="1" parent="1">
                    <mxGeometry x="-630" y="510" width="60" height="30" as="geometry"/>
                </mxCell>
            </root>
        </mxGraphModel>
    </diagram>
</mxfile>